<svg width="1058" height="658" viewBox="0 0 1058 658" fill="none" xmlns="http://www.w3.org/2000/svg">
<rect width="1058" height="658" fill="white"/>
<g opacity="0.3">
<path d="M822.348 378.928H778.116L778.564 370.707H822.796L822.348 378.928Z" stroke="black" stroke-linecap="round" stroke-linejoin="round"/>
<path d="M822.348 390.442H778.116L778.564 382.22H822.796L822.348 390.442Z" stroke="black" stroke-linecap="round" stroke-linejoin="round"/>
<path d="M822.348 401.954H778.116L778.564 393.732H822.796L822.348 401.954Z" stroke="black" stroke-linecap="round" stroke-linejoin="round"/>
<path d="M822.348 413.468H778.116L778.564 405.246H822.796L822.348 413.468Z" stroke="black" stroke-linecap="round" stroke-linejoin="round"/>
<path d="M822.348 424.986H778.116L778.564 416.758H822.796L822.348 424.986Z" stroke="black" stroke-linecap="round" stroke-linejoin="round"/>
<path d="M822.348 436.499H778.116L778.564 428.271H822.796L822.348 436.499Z" stroke="black" stroke-linecap="round" stroke-linejoin="round"/>
<path d="M822.348 448.012H778.116L778.564 439.785H822.796L822.348 448.012Z" stroke="black" stroke-linecap="round" stroke-linejoin="round"/>
<path d="M822.348 459.525H778.116L778.564 451.297H822.796L822.348 459.525Z" stroke="black" stroke-linecap="round" stroke-linejoin="round"/>
<path d="M822.348 471.038H778.116L778.564 462.81H822.796L822.348 471.038Z" stroke="black" stroke-linecap="round" stroke-linejoin="round"/>
<path d="M822.348 482.55H778.116L778.564 474.323H822.796L822.348 482.55Z" stroke="black" stroke-linecap="round" stroke-linejoin="round"/>
<path d="M822.348 494.064H778.116L778.564 485.842H822.796L822.348 494.064Z" stroke="black" stroke-linecap="round" stroke-linejoin="round"/>
<path d="M869.12 378.928H824.888L825.335 370.707H869.568L869.12 378.928Z" stroke="black" stroke-linecap="round" stroke-linejoin="round"/>
<path d="M869.12 390.442H824.888L825.335 382.22H869.568L869.12 390.442Z" stroke="black" stroke-linecap="round" stroke-linejoin="round"/>
<path d="M869.12 401.954H824.888L825.335 393.732H869.568L869.12 401.954Z" stroke="black" stroke-linecap="round" stroke-linejoin="round"/>
<path d="M869.12 413.468H824.888L825.335 405.246H869.568L869.12 413.468Z" stroke="black" stroke-linecap="round" stroke-linejoin="round"/>
<path d="M869.12 424.986H824.888L825.335 416.758H869.568L869.12 424.986Z" stroke="black" stroke-linecap="round" stroke-linejoin="round"/>
<path d="M869.12 436.499H824.888L825.335 428.271H869.568L869.12 436.499Z" stroke="black" stroke-linecap="round" stroke-linejoin="round"/>
<path d="M869.12 448.012H824.888L825.335 439.785H869.568L869.12 448.012Z" stroke="black" stroke-linecap="round" stroke-linejoin="round"/>
<path d="M869.12 459.525H824.888L825.335 451.297H869.568L869.12 459.525Z" stroke="black" stroke-linecap="round" stroke-linejoin="round"/>
<path d="M869.12 471.038H824.888L825.335 462.81H869.568L869.12 471.038Z" stroke="black" stroke-linecap="round" stroke-linejoin="round"/>
<path d="M869.12 482.55H824.888L825.335 474.323H869.568L869.12 482.55Z" stroke="black" stroke-linecap="round" stroke-linejoin="round"/>
<path d="M869.12 494.064H824.888L825.335 485.842H869.568L869.12 494.064Z" stroke="black" stroke-linecap="round" stroke-linejoin="round"/>
</g>
<g opacity="0.3">
<path d="M1005.13 387.44H948.034V429.037H1005.13V387.44Z" stroke="black" stroke-linecap="round" stroke-linejoin="round"/>
<path d="M1002.02 390.878H951.127V425.604H1002.02V390.878Z" stroke="black" stroke-linecap="round" stroke-linejoin="round"/>
<path d="M967.725 396.348H985.431" stroke="black" stroke-linecap="round" stroke-linejoin="round"/>
<path d="M956.259 401.387H996.897" stroke="black" stroke-linecap="round" stroke-linejoin="round"/>
<path d="M965.315 411.458H987.841" stroke="black" stroke-linecap="round" stroke-linejoin="round"/>
<path d="M956.66 421.536H965.516" stroke="black" stroke-linecap="round" stroke-linejoin="round"/>
<path d="M987.641 421.536H996.491" stroke="black" stroke-linecap="round" stroke-linejoin="round"/>
</g>
<g opacity="0.3">
<path d="M1020.63 437.81H978.608V468.428H1020.63V437.81Z" stroke="black" stroke-linecap="round" stroke-linejoin="round"/>
<path d="M1018.35 440.34H980.888V465.902H1018.35V440.34Z" stroke="black" stroke-linecap="round" stroke-linejoin="round"/>
<path d="M993.109 444.369H1006.14" stroke="black" stroke-linecap="round" stroke-linejoin="round"/>
<path d="M984.665 448.074H1014.58" stroke="black" stroke-linecap="round" stroke-linejoin="round"/>
<path d="M991.329 455.49H1007.92" stroke="black" stroke-linecap="round" stroke-linejoin="round"/>
<path d="M984.96 462.906H991.476" stroke="black" stroke-linecap="round" stroke-linejoin="round"/>
<path d="M1007.76 462.906H1014.28" stroke="black" stroke-linecap="round" stroke-linejoin="round"/>
</g>
<path d="M971.95 459.349L910.948 457.306C908.434 457.223 905.921 457.223 903.407 457.306L846.577 459.349L849.099 382.509C849.193 379.6 849.193 376.687 849.099 373.77L846.577 301.266H971.95V459.349Z" fill="#263238" stroke="#263238" stroke-linecap="round" stroke-linejoin="round"/>
<path d="M973.965 298.553H848.592V456.636H973.965V298.553Z" fill="white" stroke="#263238" stroke-linecap="round" stroke-linejoin="round"/>
<path d="M965.628 341.638H856.923V447.609H965.628V341.638Z" fill="white" stroke="#263238" stroke-linecap="round" stroke-linejoin="round"/>
<path d="M857.943 325.801V306.423H863.835C864.859 306.38 865.877 306.603 866.781 307.07C867.536 307.503 868.122 308.163 868.448 308.948C868.827 309.898 869.007 310.91 868.979 311.927C869.026 312.981 868.795 314.03 868.307 314.974C867.895 315.726 867.236 316.324 866.433 316.677C865.535 317.047 864.564 317.227 863.587 317.204H861.602V325.801H857.943ZM861.619 314.702H863.01C863.544 314.725 864.076 314.63 864.566 314.424C864.75 314.335 864.913 314.211 865.044 314.058C865.176 313.906 865.274 313.729 865.332 313.539C865.49 313.006 865.562 312.453 865.544 311.899C865.556 311.328 865.502 310.757 865.385 310.197C865.343 309.998 865.261 309.809 865.141 309.642C865.021 309.475 864.868 309.334 864.689 309.226C864.166 308.986 863.588 308.878 863.01 308.914H861.619V314.702Z" fill="#0D6EFD"/>
<path d="M862.415 335.146L866.463 324.864L862.539 315.786H865.968L868.572 321.789L870.858 315.786H874.04L870.145 325.534L874.317 335.146H870.911L868.054 328.638L865.567 335.14L862.415 335.146Z" fill="#0D6EFD"/>
<path d="M918.797 312.398H965.268" stroke="#263238" stroke-linecap="round" stroke-linejoin="round"/>
<path d="M918.797 322.056H965.268" stroke="#263238" stroke-linecap="round" stroke-linejoin="round"/>
<path d="M928.831 317.874H965.268" stroke="#263238" stroke-linecap="round" stroke-linejoin="round"/>
<path d="M928.831 326.567H965.268" stroke="#263238" stroke-linecap="round" stroke-linejoin="round"/>
<path d="M860.624 353.287H897.067" stroke="#263238" stroke-linecap="round" stroke-linejoin="round"/>
<path d="M860.624 362.451H897.067" stroke="#263238" stroke-linecap="round" stroke-linejoin="round"/>
<path d="M860.624 358.024H915.792" stroke="#263238" stroke-linecap="round" stroke-linejoin="round"/>
<path d="M860.624 373.617H897.067" stroke="#263238" stroke-linecap="round" stroke-linejoin="round"/>
<path d="M860.624 382.781H897.067" stroke="#263238" stroke-linecap="round" stroke-linejoin="round"/>
<path d="M860.624 378.355H915.792" stroke="#263238" stroke-linecap="round" stroke-linejoin="round"/>
<path d="M859.846 441.895H894.392" stroke="#263238" stroke-linecap="round" stroke-linejoin="round"/>
<path d="M925.355 441.895H959.9" stroke="#263238" stroke-linecap="round" stroke-linejoin="round"/>
<path d="M864.719 405.37C862.653 406.632 861.022 408.456 860.032 410.61C859.042 412.765 858.738 415.153 859.157 417.474C859.576 419.796 860.701 421.945 862.388 423.651C864.076 425.356 866.25 426.542 868.637 427.058C871.024 427.574 873.517 427.397 875.799 426.55C878.082 425.702 880.052 424.222 881.462 422.296C882.871 420.371 883.656 418.086 883.717 415.73C883.778 413.375 883.113 411.055 881.806 409.064C880.937 407.74 879.805 406.594 878.475 405.692C877.146 404.79 875.645 404.149 874.058 403.805C872.471 403.462 870.829 403.424 869.226 403.692C867.624 403.961 866.092 404.531 864.719 405.37ZM876.591 423.397C874.958 424.394 873.055 424.901 871.123 424.856C869.19 424.811 867.315 424.215 865.734 423.144C864.153 422.073 862.938 420.574 862.241 418.837C861.544 417.101 861.398 415.204 861.821 413.388C862.243 411.571 863.216 409.916 864.615 408.632C866.014 407.347 867.778 406.491 869.682 406.172C871.587 405.852 873.547 406.084 875.315 406.837C877.082 407.59 878.579 408.831 879.614 410.403C880.302 411.447 880.769 412.612 880.99 413.83C881.21 415.048 881.179 416.297 880.898 417.503C880.617 418.71 880.093 419.852 879.354 420.863C878.615 421.874 877.676 422.735 876.591 423.397Z" fill="#0D6EFD"/>
<path d="M875.951 411.565L865.414 417.995L866.49 419.629L877.026 413.2L875.951 411.565Z" fill="#92E3A9"/>
<path d="M865.379 438.15C865.379 438.15 865.55 441.929 870.682 435.188C875.814 428.447 875.124 428.946 873.757 432.725C872.71 435.341 871.324 437.82 869.633 440.102C869.633 440.102 875.784 430.728 875.784 433.355C875.784 435.982 869.975 447.172 871.171 446.184C872.367 445.197 876.126 440.266 876.126 440.266C876.126 440.266 875.613 443.551 876.974 442.071C878.335 440.59 879.879 437.633 879.708 439.279C879.537 440.924 877.316 442.893 879.537 440.924C881.759 438.955 883.468 436.481 882.955 438.292C882.442 440.102 881.075 440.76 882.442 440.102C883.809 439.443 891.493 427.108 889.1 428.589C886.708 430.07 882.271 442.893 884.322 441.906C886.372 440.919 888.759 435.988 888.588 438.456C888.417 440.924 889.1 440.924 889.766 440.102" stroke="#263238" stroke-linecap="round" stroke-linejoin="round"/>
<path d="M1034 542.129H765" stroke="#263238" stroke-linecap="round" stroke-linejoin="round"/>
<path d="M1034 547.554H765" stroke="#263238" stroke-linecap="round" stroke-linejoin="round"/>
<path d="M1019.26 482.295H962.228C961.328 482.294 960.458 482.606 959.777 483.173C959.096 483.74 958.651 484.524 958.522 485.382L949.99 541.556H1017.81L1022.99 486.21C1023.04 485.712 1022.98 485.211 1022.81 484.738C1022.64 484.265 1022.37 483.83 1022.02 483.462C1021.67 483.094 1021.25 482.8 1020.77 482.599C1020.3 482.398 1019.78 482.295 1019.26 482.295Z" fill="#263238" stroke="#263238" stroke-linecap="round" stroke-linejoin="round"/>
<path d="M942.03 473.125C942.03 473.125 926.598 480.502 921.301 482.539C916.004 484.576 914.702 485.49 914.23 486.738C913.759 487.986 893.148 519.177 890.797 522.014C888.446 524.851 883.373 530.974 884.08 535.167C884.787 539.36 890.444 542.997 895.865 542.884C901.285 542.77 904.703 541.749 905.292 540.274C905.881 538.799 920.841 513.038 920.841 513.038L925.555 541.732H985.743C985.743 541.732 990.457 502.489 990.457 496.702C990.457 490.914 991.635 484.111 989.161 482.635C986.686 481.16 976.44 477.761 968.898 475.378C961.356 472.995 959.005 472.541 957.243 472.541C955.481 472.541 942.03 473.125 942.03 473.125Z" fill="white" stroke="#263238" stroke-linecap="round" stroke-linejoin="round"/>
<path d="M940.397 473.33C940.397 473.33 938.394 476.961 938.276 479.912C938.158 482.862 937.687 488.304 935.919 491.595C934.152 494.886 932.855 496.702 933.798 496.355C934.741 496.009 940.156 490.233 940.745 488.979C941.334 487.725 942.277 490.114 942.277 490.114C942.277 490.114 940.509 494.988 940.274 495.669C940.038 496.35 947.692 505.763 947.692 505.763C947.692 505.763 954.291 500.776 955.823 499.641C957.355 498.506 956.884 497.598 957.001 496.123C957.119 494.648 957.591 492.497 958.41 491.249C959.229 490 961.597 494.892 963.241 497.161C964.885 499.431 966.541 500.225 966.305 498.523C966.069 496.821 965.245 493.53 964.655 487.742C964.066 481.954 964.184 475.037 962.652 472.881C961.12 470.725 953.083 470.3 947.81 469.936C946.369 469.782 944.911 470.017 943.602 470.617C942.292 471.216 941.182 472.156 940.397 473.33Z" fill="white" stroke="#263238" stroke-linecap="round" stroke-linejoin="round"/>
<path d="M916.605 492.65L920.847 513.055L915.368 499.488" stroke="#263238" stroke-linecap="round" stroke-linejoin="round"/>
<path d="M940.987 478.8C940.987 478.8 942.636 487.646 944.168 494.449C945.011 498.322 946.193 502.118 947.704 505.798C947.704 505.798 955.481 493.207 957.72 486.63C958.992 483.002 959.977 479.286 960.666 475.515H940.987V478.8Z" stroke="#263238" stroke-linecap="round" stroke-linejoin="round"/>
<path d="M949.583 481.841L945.347 486.948L948.293 492.395L945.394 499.153C946.033 501.4 946.804 503.611 947.704 505.775C947.704 505.775 950.131 501.848 952.659 497.263L950.532 492.537L953.124 486.862L949.583 481.841Z" fill="#0D6EFD" stroke="#263238" stroke-linecap="round" stroke-linejoin="round"/>
<path d="M940.987 475.508V478.799C940.987 478.799 942.124 484.905 943.385 490.868L949.348 484.808L955.634 491.515C956.421 489.923 957.115 488.29 957.714 486.624C958.986 482.996 959.971 479.28 960.66 475.508H940.987Z" fill="white" stroke="#263238" stroke-linecap="round" stroke-linejoin="round"/>
<path d="M889.637 525.374C889.637 525.374 900.637 521.504 906.571 530.917" stroke="#263238" stroke-linecap="round" stroke-linejoin="round"/>
<path d="M906.765 528.012C906.765 528.012 900.619 529.351 897.338 534.395C894.056 539.44 900.731 540.001 902.576 540.001C904.42 540.001 906.164 538.81 906.264 538.191C906.364 537.573 908.78 531.592 908.686 530.196C908.675 529.675 908.478 529.173 908.128 528.776C907.778 528.378 907.297 528.108 906.765 528.012Z" fill="white" stroke="#263238" stroke-linecap="round" stroke-linejoin="round"/>
<path d="M903.937 530.1C903.937 530.1 900.537 532.937 900.767 534.072C900.997 535.207 906.04 539.576 907.012 538.946C907.188 538.86 907.344 538.742 907.472 538.598C907.6 538.454 907.697 538.287 907.757 538.107C907.818 537.926 907.841 537.736 907.826 537.547C907.81 537.358 907.756 537.174 907.666 537.006C907.39 536.58 903.937 530.1 903.937 530.1Z" fill="white" stroke="#263238" stroke-linecap="round" stroke-linejoin="round"/>
<path d="M900.785 534.043C900.785 534.043 898.787 536.092 899.441 537.028C900.095 537.964 904.662 540.353 905.846 539.633C907.03 538.912 906.264 538.174 906.264 538.174L900.785 534.043Z" fill="white" stroke="#263238" stroke-linecap="round" stroke-linejoin="round"/>
<path d="M912.486 529.992L908.397 529.312L909.357 534.98L913.535 535.105L912.486 529.992Z" fill="white" stroke="#263238" stroke-linecap="round" stroke-linejoin="round"/>
<path d="M905.127 521.078L909.917 537.244L912.245 539.281V536.404L907.178 520.516C907.136 520.384 907.068 520.261 906.976 520.155C906.884 520.049 906.77 519.963 906.643 519.9C906.515 519.837 906.375 519.8 906.232 519.791C906.089 519.782 905.946 519.801 905.811 519.847C905.556 519.931 905.345 520.105 905.218 520.333C905.091 520.562 905.059 520.828 905.127 521.078Z" fill="#263238" stroke="#263238" stroke-linecap="round" stroke-linejoin="round"/>
<path d="M906.765 528.012C906.765 528.012 903.937 529.607 904.22 530.815C904.502 532.024 907.555 537.675 908.656 537.749C909.758 537.823 910.424 537.182 910.265 535.956C910.106 534.73 909.087 530.282 908.397 529.312C907.708 528.341 907.631 527.956 906.765 528.012Z" fill="white" stroke="#263238" stroke-linecap="round" stroke-linejoin="round"/>
<path d="M912.486 529.992C912.486 529.992 915.497 530.355 916.022 531.241C916.546 532.126 914.442 535.655 913.771 536.461C913.099 537.267 911.897 537.232 911.862 535.19C911.918 533.443 912.127 531.705 912.486 529.992Z" fill="white" stroke="#263238" stroke-linecap="round" stroke-linejoin="round"/>
<path d="M896.2 536.818H929.238C930.161 536.82 931.046 537.174 931.698 537.802C932.351 538.431 932.718 539.283 932.72 540.172C932.72 540.924 932.41 541.646 931.857 542.178C931.305 542.71 930.555 543.009 929.774 543.009H896.66C895.941 543.009 895.252 542.734 894.743 542.244C894.235 541.755 893.95 541.091 893.95 540.399V538.98C893.95 538.696 894.008 538.414 894.121 538.152C894.234 537.889 894.4 537.65 894.609 537.45C894.818 537.249 895.066 537.09 895.339 536.981C895.613 536.873 895.905 536.818 896.2 536.818Z" fill="white" stroke="#263238" stroke-linecap="round" stroke-linejoin="round"/>
<path d="M954.992 529.505C954.992 529.505 946.396 528.597 944.274 527.916C942.153 527.235 938.736 526.667 937.557 527.575C936.379 528.483 930.611 534.952 930.487 535.74C930.363 536.529 929.191 539.145 929.78 539.826C930.274 540.3 930.88 540.651 931.547 540.847C931.547 540.847 939.207 542.89 940.026 543.003C940.845 543.117 948.741 542.776 948.741 542.776L952.865 541.301L958.634 541.188C958.634 541.188 958.751 543.003 958.869 538.578C958.987 534.152 954.992 529.505 954.992 529.505Z" fill="white" stroke="#263238" stroke-linecap="round" stroke-linejoin="round"/>
<path d="M931.565 540.853C931.565 540.853 931.683 538.243 932.272 537.108C932.861 535.973 939.572 530.191 939.572 530.191" stroke="#263238" stroke-linecap="round" stroke-linejoin="round"/>
<path d="M933.781 541.523C933.781 541.523 934.959 538.686 935.43 538.459C935.902 538.232 941.434 534.827 941.434 534.827" stroke="#263238" stroke-linecap="round" stroke-linejoin="round"/>
<path d="M937.805 542.317C937.805 542.317 938.041 541.182 938.63 540.955C939.219 540.728 944.168 538.572 944.168 538.572" stroke="#263238" stroke-linecap="round" stroke-linejoin="round"/>
<path d="M943.108 542.884L945.347 542.316L945.111 541.295L942.754 541.862" stroke="#263238" stroke-linecap="round" stroke-linejoin="round"/>
<path d="M981.972 492.974C981.972 492.974 975.733 505.565 976.08 509.997C976.428 514.428 977.972 521.788 977.972 521.788C977.972 521.788 968.079 525.527 964.661 526.894C961.244 528.262 954.992 529.505 954.992 529.505L958.168 541.528L957.703 542.776H991.971C991.971 542.776 994.564 542.323 995.035 541.755C995.507 541.188 995.978 540.961 996.214 539.145C996.449 537.329 997.981 521.453 997.628 517.016C997.274 512.578 992.443 489.57 991.854 487.186C991.264 484.803 990.21 483.214 989.149 482.647C988.088 482.08 983.493 481.631 983.493 481.631" fill="white"/>
<path d="M981.972 492.974C981.972 492.974 975.733 505.565 976.08 509.997C976.428 514.428 977.972 521.788 977.972 521.788C977.972 521.788 968.079 525.527 964.661 526.894C961.244 528.262 954.992 529.505 954.992 529.505L958.168 541.528L957.703 542.776H991.971C991.971 542.776 994.564 542.323 995.035 541.755C995.507 541.188 995.978 540.961 996.214 539.145C996.449 537.329 997.981 521.453 997.628 517.016C997.274 512.578 992.443 489.57 991.854 487.186C991.264 484.803 990.21 483.214 989.149 482.647C988.088 482.08 983.493 481.631 983.493 481.631" stroke="#263238" stroke-linecap="round" stroke-linejoin="round"/>
<path d="M978.796 522.015C978.796 522.015 987.864 522.469 992.348 525.187" stroke="#263238" stroke-linecap="round" stroke-linejoin="round"/>
<path d="M980.44 520.88C980.44 520.88 986.804 520.539 990.221 521.561" stroke="#263238" stroke-linecap="round" stroke-linejoin="round"/>
<path d="M978.679 492.622C978.679 492.622 975.497 499.772 975.379 502.495C975.261 505.219 975.026 506.808 975.026 506.808" stroke="#263238" stroke-linecap="round" stroke-linejoin="round"/>
<path d="M964.19 473.693C964.19 473.693 971.372 483.543 965.598 511.012" stroke="#263238" stroke-width="2" stroke-linecap="round" stroke-linejoin="round"/>
<path d="M969.016 511.806C969.016 511.133 968.808 510.475 968.42 509.915C968.031 509.355 967.479 508.919 966.833 508.661C966.187 508.403 965.476 508.336 964.791 508.467C964.105 508.599 963.475 508.923 962.98 509.399C962.486 509.875 962.149 510.482 962.013 511.142C961.876 511.803 961.946 512.487 962.214 513.109C962.482 513.731 962.935 514.263 963.516 514.637C964.098 515.011 964.781 515.211 965.48 515.211C966.418 515.211 967.317 514.852 967.98 514.214C968.643 513.575 969.016 512.709 969.016 511.806Z" fill="white" stroke="#263238" stroke-linecap="round" stroke-linejoin="round"/>
<path d="M939.673 474.714C939.673 474.714 936.025 476.984 935.436 486.171" stroke="#263238" stroke-width="2" stroke-linecap="round" stroke-linejoin="round"/>
<path d="M940.503 500.089C939.614 506.285 938.4 512.941 938.147 514.399C937.557 517.52 933.71 518.609 931.235 517.588" stroke="#263238" stroke-width="2" stroke-linecap="round" stroke-linejoin="round"/>
<path d="M931.276 500.498C930.469 497.026 929.974 494.013 930.151 492.634C930.976 486.284 935.454 486.171 935.454 486.171C935.454 486.171 940.757 486.852 941.104 492.299C941.141 494.907 940.944 497.514 940.515 500.09" stroke="#263238" stroke-width="2" stroke-linecap="round" stroke-linejoin="round"/>
<path d="M941.222 517.134C941.222 517.134 938.748 518.496 937.098 517.588C935.984 516.975 932.973 507.738 931.276 500.498" stroke="#263238" stroke-width="2" stroke-linecap="round" stroke-linejoin="round"/>
<path d="M942.085 515.905L941.111 516.309C940.641 516.504 940.425 517.028 940.627 517.48L940.639 517.506C940.841 517.958 941.386 518.166 941.855 517.971L942.829 517.567C943.298 517.372 943.514 516.848 943.312 516.396L943.3 516.37C943.098 515.918 942.554 515.71 942.085 515.905Z" stroke="#263238" stroke-linecap="round" stroke-linejoin="round"/>
<path d="M931.54 516.52L930.631 515.994C930.193 515.741 929.625 515.878 929.362 516.299L929.347 516.324C929.084 516.745 929.226 517.293 929.663 517.546L930.573 518.072C931.011 518.325 931.579 518.189 931.842 517.767L931.857 517.743C932.12 517.321 931.978 516.774 931.54 516.52Z" stroke="#263238" stroke-linecap="round" stroke-linejoin="round"/>
<path d="M935.454 447.268C935.454 447.268 933.568 451.575 933.922 454.299C934.275 457.022 938.046 459.973 938.046 459.973C938.046 459.973 939.343 447.836 939.343 447.382C939.343 446.928 936.98 445.906 935.454 447.268Z" fill="#263238" stroke="#263238" stroke-linecap="round" stroke-linejoin="round"/>
<path d="M934.099 462.696L936.603 461.011" stroke="#263238" stroke-width="2" stroke-linecap="round" stroke-linejoin="round"/>
<path d="M936.862 448.063C936.862 448.063 936.391 460.086 936.626 462.35C936.862 464.614 937.805 471.877 938.63 474.147C939.455 476.417 942.165 483.674 944.286 484.468C946.407 485.263 950.644 485.83 952.058 484.922C953.472 484.014 958.651 480.615 960.065 477.324C960.904 475.405 961.459 473.383 961.715 471.315C962.891 470.711 963.907 469.854 964.683 468.811C965.46 467.768 965.976 466.567 966.193 465.301C966.9 460.988 965.015 459.746 965.015 459.746L965.133 452.256C965.133 452.256 963.836 447.041 960.419 444.204C957.001 441.367 953.001 441.14 948.876 443.296C944.752 445.452 936.862 448.063 936.862 448.063Z" fill="white" stroke="#263238" stroke-linecap="round" stroke-linejoin="round"/>
<path d="M959.005 447.382C959.005 447.382 959.123 444.431 956.182 445.452C953.242 446.474 952.529 448.403 948.169 450.105C943.809 451.808 938.04 449.878 936.043 448.744C934.046 447.609 932.626 446.02 935.336 443.069C938.046 440.119 944.404 437.174 951.245 437.174C958.086 437.174 963.377 442.615 965.616 444.885C967.855 447.155 968.208 449.992 967.383 452.029C966.558 454.066 965.026 459.746 965.026 459.746C965.026 459.746 964.084 459.632 963.73 460.988C963.377 462.345 963.494 463.826 961.963 463.939C960.431 464.052 960.548 460.086 960.548 460.086C960.548 460.086 956.783 458.951 956.312 456.341C955.841 453.731 959.005 449.878 959.005 447.382Z" fill="#263238" stroke="#263238" stroke-linecap="round" stroke-linejoin="round"/>
<path d="M944.976 464.547L934.081 462.697L934.712 467.401C934.75 467.693 934.886 467.966 935.098 468.178C935.31 468.391 935.588 468.532 935.89 468.581L942.513 469.585C942.877 469.642 943.25 469.56 943.552 469.356C943.854 469.153 944.063 468.844 944.133 468.496L944.976 464.547Z" stroke="#263238" stroke-width="2" stroke-linecap="round" stroke-linejoin="round"/>
<path d="M946.961 464.745L959.594 464.393L958.357 468.796C958.25 469.093 958.047 469.348 957.777 469.524C957.507 469.7 957.186 469.787 956.86 469.772L949.2 469.874C948.803 469.901 948.41 469.788 948.092 469.558C947.773 469.328 947.552 468.995 947.468 468.62L946.961 464.745Z" stroke="#263238" stroke-width="2" stroke-linecap="round" stroke-linejoin="round"/>
<path d="M944.993 464.546L946.961 464.745" stroke="#263238" stroke-width="2" stroke-linecap="round" stroke-linejoin="round"/>
<path d="M959.594 464.393L963.718 460.988" stroke="#263238" stroke-width="2" stroke-linecap="round" stroke-linejoin="round"/>
<path d="M948.641 463.371C948.641 463.371 952.176 460.767 955.475 462.35" stroke="#263238" stroke-width="2" stroke-linecap="round" stroke-linejoin="round"/>
<path d="M943.343 462.804C943.343 462.804 940.633 459.967 937.569 461.896" stroke="#263238" stroke-width="2" stroke-linecap="round" stroke-linejoin="round"/>
<path d="M944.051 472.672C944.051 472.672 943.461 475.055 944.051 475.509C945.054 476.042 946.211 476.242 947.344 476.076" stroke="#263238" stroke-linecap="round" stroke-linejoin="round"/>
<path d="M942.283 477.302C942.283 477.302 944.64 479.004 946.879 479.118C949.118 479.231 951.705 477.642 951.705 477.642" stroke="#263238" stroke-linecap="round" stroke-linejoin="round"/>
<path d="M950.997 465.755C950.997 465.755 952.411 467.344 954.768 465.642" stroke="#263238" stroke-linecap="round" stroke-linejoin="round"/>
<path d="M939.396 465.057C939.396 465.057 940.574 466.816 943.143 465.437" stroke="#263238" stroke-linecap="round" stroke-linejoin="round"/>
<path d="M866.315 447.37C866.315 447.37 867.064 458.18 866.498 459.082L864.842 461.783C864.842 461.783 865.591 469.534 864.094 470.43C862.934 471.028 861.662 471.397 860.353 471.514C860.353 471.514 858.856 477.279 858.29 478C857.725 478.72 854.36 481.064 853.241 481.404C852.121 481.745 848.562 481.972 840.143 477.081C831.723 472.189 828.541 470.595 828.729 467.894C828.918 465.193 829.319 462.129 829.319 462.129C829.319 462.129 830.255 449.152 831.941 445.192C833.626 441.231 854.955 439.063 859.634 440.147C864.312 441.231 866.315 447.37 866.315 447.37Z" fill="white" stroke="#263238" stroke-linecap="round" stroke-linejoin="round"/>
<path d="M844.609 465.204L845.923 466.106C845.923 466.106 844.797 470.43 845.333 472.416" stroke="#263238" stroke-linecap="round" stroke-linejoin="round"/>
<path d="M863.316 461.585C863.128 462.413 862.674 463.014 862.309 462.935C861.943 462.856 861.796 462.129 861.991 461.301C862.185 460.472 862.633 459.871 862.998 459.95C863.363 460.03 863.511 460.762 863.316 461.585Z" fill="#263238"/>
<path d="M861.407 458.277C861.407 458.277 863.446 456.313 865.149 458.169" stroke="#263238" stroke-linecap="round" stroke-linejoin="round"/>
<path d="M858.832 445.929C858.832 445.929 861.26 450.253 861.077 451.155C860.895 452.057 853.217 454.219 853.217 454.219C853.217 454.219 852.469 458.543 851.344 459.082L850.224 459.621C849.326 458.447 848.573 457.177 847.979 455.836C846.671 453.135 844.797 452.432 842.741 455.116C840.685 457.8 842.364 464.126 843.489 464.665L844.609 465.204C844.609 465.204 843.672 466.107 840.119 466.651C836.566 467.196 833.944 467.911 831.328 467.19C828.712 466.47 824.964 459.621 823.668 450.792C822.372 441.963 826.473 434.399 831.917 432.067C837.362 429.735 849.694 431.886 850.625 432.425C851.556 432.964 857.925 430.087 861.667 431.886C865.408 433.684 865.202 435.67 866.156 436.93C867.111 438.19 871.954 436.572 872.331 441.078C872.708 445.583 870.835 448.284 868.401 448.641C865.968 448.999 858.832 445.929 858.832 445.929Z" fill="#263238" stroke="#263238" stroke-linecap="round" stroke-linejoin="round"/>
<path d="M814.529 474.215C814.529 474.215 796.6 483.425 793.182 485.246C789.765 487.067 789.252 488.702 789.058 490.353C788.863 492.004 789.058 547.577 789.058 547.577H885.907C885.907 547.577 871.218 505.106 870.735 500.362C870.251 495.618 869.203 487.204 867.836 486.216C866.469 485.229 847.166 477.007 847.166 477.007C847.166 477.007 842.552 472.241 831.628 472.241C820.704 472.241 814.529 474.215 814.529 474.215Z" fill="#0D6EFD" stroke="#263238" stroke-linecap="round" stroke-linejoin="round"/>
<path d="M825.63 508.05C826.137 508.243 826.649 508.419 827.162 508.584" stroke="#263238" stroke-linecap="round" stroke-linejoin="round"/>
<path d="M806.51 492.798C806.51 492.798 813.581 502.296 823.238 506.983" stroke="#263238" stroke-linecap="round" stroke-linejoin="round"/>
<path d="M812.65 503.812C812.65 503.812 816.574 507.597 824.77 509.736" stroke="#263238" stroke-linecap="round" stroke-linejoin="round"/>
<path d="M861.307 490.182C858.579 493.167 854.737 497.939 853.465 502.331" stroke="#263238" stroke-linecap="round" stroke-linejoin="round"/>
<path d="M864.218 487.203C864.218 487.203 863.676 487.708 862.827 488.576" stroke="#263238" stroke-linecap="round" stroke-linejoin="round"/>
<path d="M854.484 497.071C854.484 497.071 851.921 501.837 851.414 504.799" stroke="#263238" stroke-linecap="round" stroke-linejoin="round"/>
<path d="M813.504 475.032C813.504 475.032 823.409 474.703 832.801 474.868C842.193 475.032 848.344 477.83 848.344 477.83C848.344 477.83 842.706 471.253 840.148 469.772C837.591 468.292 829.731 465.801 823.244 467.798C819.247 469.091 815.818 471.638 813.504 475.032Z" fill="#0D6EFD" stroke="#263238" stroke-linecap="round" stroke-linejoin="round"/>
<path d="M785.34 547.514L776.313 514.184C776.225 513.779 776.233 513.361 776.334 512.959C776.436 512.558 776.629 512.183 776.9 511.862C777.171 511.541 777.512 511.283 777.9 511.106C778.288 510.928 778.712 510.836 779.141 510.836H850.961C851.62 510.837 852.26 511.054 852.775 511.453C853.289 511.851 853.647 512.406 853.789 513.027L861.761 547.548" fill="#263238"/>
<path d="M785.34 547.514L776.313 514.184C776.225 513.779 776.233 513.361 776.334 512.959C776.436 512.558 776.629 512.183 776.9 511.862C777.171 511.541 777.512 511.283 777.9 511.106C778.288 510.928 778.712 510.836 779.141 510.836H850.961C851.62 510.837 852.26 511.054 852.775 511.453C853.289 511.851 853.647 512.406 853.789 513.027L861.761 547.548" stroke="#263238" stroke-linecap="round" stroke-linejoin="round"/>
</svg>
