<svg width="308" height="302" viewBox="0 0 308 302" fill="none" xmlns="http://www.w3.org/2000/svg">
<g opacity="0.3">
<path d="M66.1307 103.816H15.8958L16.4043 94.5312H66.6392L66.1307 103.816Z" stroke="black" stroke-linecap="round" stroke-linejoin="round"/>
<path d="M66.1307 116.818H15.8958L16.4043 107.533H66.6392L66.1307 116.818Z" stroke="black" stroke-linecap="round" stroke-linejoin="round"/>
<path d="M66.1307 129.82H15.8958L16.4043 120.535H66.6392L66.1307 129.82Z" stroke="black" stroke-linecap="round" stroke-linejoin="round"/>
<path d="M66.1307 142.822H15.8958L16.4043 133.537H66.6392L66.1307 142.822Z" stroke="black" stroke-linecap="round" stroke-linejoin="round"/>
<path d="M66.1307 155.83H15.8958L16.4043 146.538H66.6392L66.1307 155.83Z" stroke="black" stroke-linecap="round" stroke-linejoin="round"/>
<path d="M66.1307 168.832H15.8958L16.4043 159.54H66.6392L66.1307 168.832Z" stroke="black" stroke-linecap="round" stroke-linejoin="round"/>
<path d="M66.1307 181.834H15.8958L16.4043 172.542H66.6392L66.1307 181.834Z" stroke="black" stroke-linecap="round" stroke-linejoin="round"/>
<path d="M66.1307 194.835H15.8958L16.4043 185.543H66.6392L66.1307 194.835Z" stroke="black" stroke-linecap="round" stroke-linejoin="round"/>
<path d="M66.1307 207.837H15.8958L16.4043 198.545H66.6392L66.1307 207.837Z" stroke="black" stroke-linecap="round" stroke-linejoin="round"/>
<path d="M66.1307 220.838H15.8958L16.4043 211.547H66.6392L66.1307 220.838Z" stroke="black" stroke-linecap="round" stroke-linejoin="round"/>
<path d="M66.1307 233.84H15.8958L16.4043 224.555H66.6392L66.1307 233.84Z" stroke="black" stroke-linecap="round" stroke-linejoin="round"/>
<path d="M119.25 103.816H69.0148L69.5233 94.5312H119.758L119.25 103.816Z" stroke="black" stroke-linecap="round" stroke-linejoin="round"/>
<path d="M119.25 116.818H69.0148L69.5233 107.533H119.758L119.25 116.818Z" stroke="black" stroke-linecap="round" stroke-linejoin="round"/>
<path d="M119.25 129.82H69.0148L69.5233 120.535H119.758L119.25 129.82Z" stroke="black" stroke-linecap="round" stroke-linejoin="round"/>
<path d="M119.25 142.822H69.0148L69.5233 133.537H119.758L119.25 142.822Z" stroke="black" stroke-linecap="round" stroke-linejoin="round"/>
<path d="M119.25 155.83H69.0148L69.5233 146.538H119.758L119.25 155.83Z" stroke="black" stroke-linecap="round" stroke-linejoin="round"/>
<path d="M119.25 168.832H69.0148L69.5233 159.54H119.758L119.25 168.832Z" stroke="black" stroke-linecap="round" stroke-linejoin="round"/>
<path d="M119.25 181.834H69.0148L69.5233 172.542H119.758L119.25 181.834Z" stroke="black" stroke-linecap="round" stroke-linejoin="round"/>
<path d="M119.25 194.835H69.0148L69.5233 185.543H119.758L119.25 194.835Z" stroke="black" stroke-linecap="round" stroke-linejoin="round"/>
<path d="M119.25 207.837H69.0148L69.5233 198.545H119.758L119.25 207.837Z" stroke="black" stroke-linecap="round" stroke-linejoin="round"/>
<path d="M119.25 220.838H69.0148L69.5233 211.547H119.758L119.25 220.838Z" stroke="black" stroke-linecap="round" stroke-linejoin="round"/>
<path d="M119.25 233.84H69.0148L69.5233 224.555H119.758L119.25 233.84Z" stroke="black" stroke-linecap="round" stroke-linejoin="round"/>
</g>
<g opacity="0.3">
<path d="M273.715 113.428H208.872V160.405H273.715V113.428Z" stroke="black" stroke-linecap="round" stroke-linejoin="round"/>
<path d="M270.189 117.312H212.385V156.528H270.189V117.312Z" stroke="black" stroke-linecap="round" stroke-linejoin="round"/>
<path d="M231.236 123.489H251.345" stroke="black" stroke-linecap="round" stroke-linejoin="round"/>
<path d="M218.214 129.179H264.367" stroke="black" stroke-linecap="round" stroke-linejoin="round"/>
<path d="M228.499 140.553H254.082" stroke="black" stroke-linecap="round" stroke-linejoin="round"/>
<path d="M218.669 151.934H228.727" stroke="black" stroke-linecap="round" stroke-linejoin="round"/>
<path d="M253.854 151.934H263.905" stroke="black" stroke-linecap="round" stroke-linejoin="round"/>
</g>
<g opacity="0.3">
<path d="M291.321 170.312H243.596V204.889H291.321V170.312Z" stroke="black" stroke-linecap="round" stroke-linejoin="round"/>
<path d="M288.732 173.169H246.185V202.037H288.732V173.169Z" stroke="black" stroke-linecap="round" stroke-linejoin="round"/>
<path d="M260.064 177.719H274.86" stroke="black" stroke-linecap="round" stroke-linejoin="round"/>
<path d="M250.475 181.903H284.449" stroke="black" stroke-linecap="round" stroke-linejoin="round"/>
<path d="M258.043 190.279H276.88" stroke="black" stroke-linecap="round" stroke-linejoin="round"/>
<path d="M250.809 198.654H258.211" stroke="black" stroke-linecap="round" stroke-linejoin="round"/>
<path d="M276.707 198.654H284.108" stroke="black" stroke-linecap="round" stroke-linejoin="round"/>
</g>
<path d="M236.034 194.636L166.754 192.329C163.899 192.235 161.044 192.235 158.189 192.329L93.6472 194.636L96.5113 107.86C96.6183 104.574 96.6183 101.285 96.5113 97.9913L93.6472 16.1104H236.034V194.636Z" fill="#263238" stroke="#263238" stroke-linecap="round" stroke-linejoin="round"/>
<path d="M238.323 13.0474H95.9358V191.573H238.323V13.0474Z" fill="white" stroke="#263238" stroke-linecap="round" stroke-linejoin="round"/>
<path d="M228.854 61.7031H105.398V181.378H228.854V61.7031Z" fill="white" stroke="#263238" stroke-linecap="round" stroke-linejoin="round"/>
<path d="M106.556 43.8184V21.9352H113.247C114.411 21.8862 115.567 22.1386 116.593 22.6657C117.451 23.1541 118.117 23.8995 118.487 24.7867C118.917 25.8594 119.121 27.0025 119.089 28.1509C119.143 29.3412 118.88 30.5251 118.326 31.592C117.859 32.4405 117.11 33.1166 116.198 33.5144C115.178 33.9327 114.076 34.136 112.966 34.1103H110.711V43.8184H106.556ZM110.731 31.2844H112.311C112.917 31.3109 113.521 31.2035 114.077 30.9704C114.286 30.87 114.471 30.7295 114.621 30.5575C114.771 30.3855 114.882 30.1857 114.947 29.9708C115.128 29.3692 115.209 28.7444 115.188 28.1189C115.202 27.4737 115.141 26.829 115.007 26.1965C114.961 25.9719 114.867 25.7589 114.731 25.5704C114.595 25.382 114.42 25.2222 114.218 25.1007C113.624 24.829 112.967 24.7076 112.311 24.7483H110.731V31.2844Z" fill="#0D6EFD"/>
<path d="M111.635 54.3723L116.232 42.761L111.775 32.5083H115.67L118.628 39.2879L121.224 32.5083H124.837L120.414 43.5172L125.152 54.3723H121.284L118.039 47.0223L115.215 54.3658L111.635 54.3723Z" fill="#0D6EFD"/>
<path d="M175.668 28.6826H228.446" stroke="#263238" stroke-linecap="round" stroke-linejoin="round"/>
<path d="M175.668 39.5894H228.446" stroke="#263238" stroke-linecap="round" stroke-linejoin="round"/>
<path d="M187.064 34.8662H228.446" stroke="#263238" stroke-linecap="round" stroke-linejoin="round"/>
<path d="M187.064 44.6836H228.446" stroke="#263238" stroke-linecap="round" stroke-linejoin="round"/>
<path d="M109.6 74.8584H150.989" stroke="#263238" stroke-linecap="round" stroke-linejoin="round"/>
<path d="M109.6 85.2075H150.989" stroke="#263238" stroke-linecap="round" stroke-linejoin="round"/>
<path d="M109.6 80.209H172.255" stroke="#263238" stroke-linecap="round" stroke-linejoin="round"/>
<path d="M109.6 97.8184H150.989" stroke="#263238" stroke-linecap="round" stroke-linejoin="round"/>
<path d="M109.6 108.167H150.989" stroke="#263238" stroke-linecap="round" stroke-linejoin="round"/>
<path d="M109.6 103.169H172.255" stroke="#263238" stroke-linecap="round" stroke-linejoin="round"/>
<path d="M108.717 174.925H147.951" stroke="#263238" stroke-linecap="round" stroke-linejoin="round"/>
<path d="M183.116 174.925H222.35" stroke="#263238" stroke-linecap="round" stroke-linejoin="round"/>
<path d="M114.251 133.677C111.905 135.103 110.053 137.162 108.929 139.595C107.804 142.028 107.458 144.726 107.935 147.347C108.411 149.968 109.688 152.395 111.604 154.322C113.521 156.248 115.99 157.587 118.701 158.17C121.412 158.753 124.243 158.553 126.835 157.596C129.428 156.639 131.665 154.967 133.266 152.792C134.867 150.617 135.758 148.037 135.828 145.377C135.897 142.718 135.142 140.098 133.657 137.849C132.67 136.354 131.385 135.06 129.875 134.041C128.365 133.022 126.66 132.298 124.857 131.91C123.055 131.523 121.19 131.479 119.37 131.783C117.551 132.086 115.811 132.73 114.251 133.677ZM127.735 154.035C125.88 155.161 123.719 155.734 121.524 155.683C119.33 155.632 117.2 154.959 115.404 153.75C113.609 152.54 112.228 150.847 111.437 148.886C110.646 146.925 110.48 144.783 110.96 142.732C111.44 140.68 112.544 138.811 114.133 137.36C115.723 135.91 117.725 134.943 119.888 134.582C122.051 134.222 124.277 134.483 126.285 135.334C128.293 136.184 129.992 137.586 131.168 139.361C131.949 140.541 132.48 141.856 132.73 143.231C132.98 144.607 132.945 146.017 132.626 147.379C132.307 148.742 131.711 150.031 130.872 151.173C130.033 152.316 128.967 153.288 127.735 154.035Z" fill="#0D6EFD"/>
<path d="M127.007 140.674L115.041 147.935L116.262 149.78L128.229 142.52L127.007 140.674Z" fill="#92E3A9"/>
<path d="M115.001 170.696C115.001 170.696 115.195 174.964 121.023 167.351C126.852 159.738 126.069 160.302 124.516 164.57C123.327 167.524 121.753 170.323 119.832 172.9C119.832 172.9 126.818 162.314 126.818 165.281C126.818 168.248 120.22 180.885 121.579 179.77C122.937 178.655 127.206 173.086 127.206 173.086C127.206 173.086 126.624 176.796 128.17 175.124C129.716 173.451 131.469 170.113 131.275 171.971C131.081 173.829 128.558 176.053 131.081 173.829C133.604 171.606 135.544 168.812 134.962 170.856C134.38 172.9 132.827 173.644 134.38 172.9C135.932 172.157 144.658 158.226 141.942 159.899C139.225 161.571 134.186 176.053 136.515 174.938C138.843 173.823 141.553 168.255 141.359 171.042C141.165 173.829 141.942 173.829 142.698 172.9" stroke="#263238" stroke-linecap="round" stroke-linejoin="round"/>
<path d="M306.505 288.122H1" stroke="#263238" stroke-linecap="round" stroke-linejoin="round"/>
<path d="M306.505 294.248H1" stroke="#263238" stroke-linecap="round" stroke-linejoin="round"/>
<path d="M289.769 220.55H224.993C223.971 220.549 222.982 220.901 222.209 221.541C221.436 222.181 220.93 223.067 220.784 224.036L211.094 287.475H288.123L294.005 224.971C294.056 224.409 293.984 223.843 293.794 223.309C293.605 222.775 293.301 222.284 292.903 221.868C292.504 221.452 292.02 221.12 291.48 220.893C290.941 220.666 290.358 220.549 289.769 220.55Z" fill="#263238" stroke="#263238" stroke-linecap="round" stroke-linejoin="round"/>
<path d="M202.053 210.195C202.053 210.195 184.528 218.525 178.512 220.826C172.496 223.126 171.017 224.158 170.482 225.567C169.946 226.977 146.539 262.202 143.869 265.406C141.199 268.61 135.437 275.524 136.24 280.259C137.043 284.995 143.467 289.102 149.624 288.974C155.78 288.846 159.661 287.693 160.33 286.026C161 284.36 177.99 255.268 177.99 255.268L183.343 287.673H251.699C251.699 287.673 257.053 243.356 257.053 236.82C257.053 230.284 258.391 222.601 255.581 220.934C252.77 219.268 241.133 215.43 232.568 212.739C224.002 210.047 221.332 209.535 219.331 209.535C217.331 209.535 202.053 210.195 202.053 210.195Z" fill="white" stroke="#263238" stroke-linecap="round" stroke-linejoin="round"/>
<path d="M200.2 210.425C200.2 210.425 197.925 214.526 197.791 217.858C197.657 221.191 197.122 227.336 195.114 231.052C193.107 234.769 191.634 236.82 192.705 236.429C193.776 236.038 199.925 229.515 200.595 228.098C201.264 226.682 202.334 229.38 202.334 229.38C202.334 229.38 200.327 234.884 200.059 235.653C199.792 236.422 208.484 247.053 208.484 247.053C208.484 247.053 215.979 241.421 217.719 240.139C219.459 238.857 218.923 237.832 219.057 236.166C219.191 234.5 219.726 232.071 220.656 230.662C221.587 229.252 224.277 234.775 226.144 237.339C228.011 239.902 229.891 240.799 229.623 238.877C229.356 236.954 228.419 233.238 227.75 226.701C227.08 220.165 227.214 212.354 225.474 209.919C223.735 207.484 214.607 207.003 208.618 206.593C206.981 206.418 205.326 206.684 203.839 207.361C202.352 208.038 201.091 209.1 200.2 210.425Z" fill="white" stroke="#263238" stroke-linecap="round" stroke-linejoin="round"/>
<path d="M173.179 232.244L177.997 255.287L171.773 239.966" stroke="#263238" stroke-linecap="round" stroke-linejoin="round"/>
<path d="M200.869 216.603C200.869 216.603 202.743 226.593 204.482 234.276C205.439 238.649 206.782 242.937 208.497 247.092C208.497 247.092 217.331 232.873 219.873 225.446C221.318 221.348 222.436 217.152 223.219 212.893H200.869V216.603Z" stroke="#263238" stroke-linecap="round" stroke-linejoin="round"/>
<path d="M210.632 220.037L205.821 225.804L209.167 231.956L205.874 239.588C206.6 242.126 207.476 244.623 208.497 247.066C208.497 247.066 211.254 242.632 214.125 237.454L211.71 232.116L214.654 225.708L210.632 220.037Z" fill="#0D6EFD" stroke="#263238" stroke-linecap="round" stroke-linejoin="round"/>
<path d="M200.869 212.886V216.602C200.869 216.602 202.16 223.497 203.592 230.232L210.364 223.388L217.505 230.963C218.398 229.165 219.186 227.32 219.867 225.439C221.311 221.341 222.429 217.145 223.213 212.886H200.869Z" fill="white" stroke="#263238" stroke-linecap="round" stroke-linejoin="round"/>
<path d="M142.55 269.199C142.55 269.199 155.044 264.829 161.782 275.46" stroke="#263238" stroke-linecap="round" stroke-linejoin="round"/>
<path d="M162.003 272.179C162.003 272.179 155.024 273.691 151.296 279.388C147.569 285.084 155.151 285.719 157.245 285.719C159.34 285.719 161.321 284.373 161.434 283.675C161.548 282.976 164.292 276.222 164.185 274.646C164.172 274.057 163.949 273.491 163.551 273.041C163.154 272.592 162.607 272.287 162.003 272.179Z" fill="white" stroke="#263238" stroke-linecap="round" stroke-linejoin="round"/>
<path d="M158.791 274.537C158.791 274.537 154.93 277.741 155.191 279.023C155.452 280.304 161.18 285.238 162.284 284.527C162.484 284.43 162.661 284.296 162.806 284.134C162.951 283.971 163.061 283.782 163.13 283.579C163.199 283.375 163.226 283.161 163.208 282.947C163.19 282.734 163.129 282.526 163.027 282.336C162.713 281.855 158.791 274.537 158.791 274.537Z" fill="white" stroke="#263238" stroke-linecap="round" stroke-linejoin="round"/>
<path d="M155.211 278.99C155.211 278.99 152.943 281.304 153.686 282.361C154.428 283.418 159.614 286.116 160.959 285.302C162.304 284.488 161.435 283.655 161.435 283.655L155.211 278.99Z" fill="white" stroke="#263238" stroke-linecap="round" stroke-linejoin="round"/>
<path d="M168.501 274.415L163.857 273.646L164.948 280.048L169.692 280.189L168.501 274.415Z" fill="white" stroke="#263238" stroke-linecap="round" stroke-linejoin="round"/>
<path d="M160.143 264.348L165.583 282.605L168.227 284.905V281.656L162.472 263.714C162.425 263.565 162.347 263.426 162.242 263.306C162.138 263.187 162.009 263.089 161.864 263.018C161.719 262.947 161.561 262.905 161.398 262.895C161.236 262.885 161.073 262.906 160.919 262.958C160.631 263.053 160.39 263.249 160.246 263.507C160.103 263.765 160.066 264.065 160.143 264.348Z" fill="#263238" stroke="#263238" stroke-linecap="round" stroke-linejoin="round"/>
<path d="M162.003 272.179C162.003 272.179 158.791 273.98 159.112 275.345C159.434 276.709 162.9 283.092 164.151 283.175C165.403 283.258 166.159 282.534 165.978 281.15C165.797 279.766 164.64 274.742 163.857 273.646C163.074 272.551 162.987 272.115 162.003 272.179Z" fill="white" stroke="#263238" stroke-linecap="round" stroke-linejoin="round"/>
<path d="M168.501 274.415C168.501 274.415 171.92 274.825 172.516 275.825C173.112 276.824 170.723 280.81 169.96 281.72C169.197 282.63 167.832 282.592 167.792 280.285C167.856 278.313 168.093 276.349 168.501 274.415Z" fill="white" stroke="#263238" stroke-linecap="round" stroke-linejoin="round"/>
<path d="M150.005 282.124H187.526C188.574 282.126 189.579 282.525 190.32 283.235C191.061 283.945 191.479 284.907 191.48 285.911C191.48 286.761 191.128 287.576 190.5 288.177C189.873 288.778 189.022 289.115 188.135 289.115H150.527C149.711 289.115 148.928 288.805 148.35 288.252C147.773 287.699 147.449 286.949 147.449 286.167V284.565C147.449 284.244 147.515 283.926 147.643 283.63C147.772 283.333 147.96 283.064 148.198 282.837C148.435 282.61 148.717 282.43 149.027 282.308C149.337 282.186 149.67 282.123 150.005 282.124Z" fill="white" stroke="#263238" stroke-linecap="round" stroke-linejoin="round"/>
<path d="M216.775 273.864C216.775 273.864 207.012 272.839 204.603 272.07C202.194 271.301 198.313 270.66 196.974 271.686C195.636 272.711 189.085 280.016 188.944 280.907C188.804 281.797 187.472 284.751 188.141 285.52C188.702 286.056 189.391 286.452 190.149 286.674C190.149 286.674 198.848 288.981 199.778 289.109C200.708 289.237 209.675 288.852 209.675 288.852L214.36 287.186L220.911 287.058C220.911 287.058 221.045 289.109 221.178 284.111C221.312 279.112 216.775 273.864 216.775 273.864Z" fill="white" stroke="#263238" stroke-linecap="round" stroke-linejoin="round"/>
<path d="M190.169 286.68C190.169 286.68 190.303 283.733 190.972 282.451C191.641 281.169 199.263 274.64 199.263 274.64" stroke="#263238" stroke-linecap="round" stroke-linejoin="round"/>
<path d="M192.685 287.436C192.685 287.436 194.023 284.232 194.559 283.976C195.094 283.72 201.378 279.875 201.378 279.875" stroke="#263238" stroke-linecap="round" stroke-linejoin="round"/>
<path d="M197.255 288.333C197.255 288.333 197.523 287.052 198.192 286.795C198.861 286.539 204.482 284.104 204.482 284.104" stroke="#263238" stroke-linecap="round" stroke-linejoin="round"/>
<path d="M203.278 288.974L205.821 288.333L205.553 287.18L202.876 287.82" stroke="#263238" stroke-linecap="round" stroke-linejoin="round"/>
<path d="M247.417 232.61C247.417 232.61 240.33 246.829 240.725 251.834C241.12 256.838 242.873 265.149 242.873 265.149C242.873 265.149 231.638 269.372 227.756 270.917C223.875 272.461 216.775 273.864 216.775 273.864L220.382 287.443L219.853 288.852H258.773C258.773 288.852 261.717 288.34 262.252 287.699C262.788 287.058 263.323 286.802 263.591 284.751C263.858 282.701 265.598 264.771 265.197 259.76C264.795 254.749 259.308 228.765 258.639 226.074C257.97 223.382 256.772 221.588 255.567 220.947C254.363 220.307 249.143 219.8 249.143 219.8" fill="white"/>
<path d="M247.417 232.61C247.417 232.61 240.33 246.829 240.725 251.834C241.12 256.838 242.873 265.149 242.873 265.149C242.873 265.149 231.638 269.372 227.756 270.917C223.875 272.461 216.775 273.864 216.775 273.864L220.382 287.443L219.853 288.852H258.773C258.773 288.852 261.717 288.34 262.252 287.699C262.788 287.058 263.323 286.802 263.591 284.751C263.858 282.701 265.598 264.771 265.197 259.76C264.795 254.749 259.308 228.765 258.639 226.074C257.97 223.382 256.772 221.588 255.567 220.947C254.363 220.307 249.143 219.8 249.143 219.8" stroke="#263238" stroke-linecap="round" stroke-linejoin="round"/>
<path d="M243.81 265.406C243.81 265.406 254.108 265.918 259.201 268.988" stroke="#263238" stroke-linecap="round" stroke-linejoin="round"/>
<path d="M245.677 264.124C245.677 264.124 252.904 263.74 256.785 264.893" stroke="#263238" stroke-linecap="round" stroke-linejoin="round"/>
<path d="M243.676 232.212C243.676 232.212 240.062 240.286 239.929 243.362C239.795 246.438 239.527 248.232 239.527 248.232" stroke="#263238" stroke-linecap="round" stroke-linejoin="round"/>
<path d="M227.221 210.835C227.221 210.835 235.378 221.96 228.82 252.981" stroke="#263238" stroke-width="2" stroke-linecap="round" stroke-linejoin="round"/>
<path d="M232.702 253.877C232.702 253.117 232.466 252.374 232.025 251.741C231.584 251.109 230.957 250.616 230.223 250.325C229.489 250.034 228.682 249.958 227.903 250.107C227.124 250.255 226.409 250.621 225.848 251.159C225.286 251.697 224.904 252.382 224.749 253.127C224.594 253.873 224.673 254.646 224.977 255.349C225.281 256.051 225.796 256.652 226.456 257.074C227.116 257.497 227.892 257.722 228.687 257.722C229.751 257.722 230.773 257.317 231.526 256.596C232.279 255.875 232.702 254.897 232.702 253.877Z" fill="white" stroke="#263238" stroke-linecap="round" stroke-linejoin="round"/>
<path d="M199.377 211.989C199.377 211.989 195.234 214.552 194.565 224.926" stroke="#263238" stroke-width="2" stroke-linecap="round" stroke-linejoin="round"/>
<path d="M200.32 240.645C199.31 247.643 197.931 255.159 197.644 256.806C196.974 260.33 192.605 261.561 189.794 260.407" stroke="#263238" stroke-width="2" stroke-linecap="round" stroke-linejoin="round"/>
<path d="M189.841 241.107C188.924 237.185 188.362 233.783 188.563 232.225C189.5 225.055 194.585 224.927 194.585 224.927C194.585 224.927 200.608 225.696 201.003 231.847C201.044 234.793 200.82 237.737 200.334 240.645" stroke="#263238" stroke-width="2" stroke-linecap="round" stroke-linejoin="round"/>
<path d="M201.137 259.895C201.137 259.895 198.326 261.432 196.452 260.407C195.188 259.715 191.768 249.283 189.841 241.106" stroke="#263238" stroke-width="2" stroke-linecap="round" stroke-linejoin="round"/>
<path d="M202.116 258.506L201.01 258.963C200.477 259.183 200.231 259.774 200.461 260.285L200.474 260.314C200.704 260.824 201.322 261.06 201.855 260.84L202.961 260.383C203.494 260.163 203.74 259.571 203.51 259.061L203.497 259.032C203.267 258.521 202.649 258.286 202.116 258.506Z" stroke="#263238" stroke-linecap="round" stroke-linejoin="round"/>
<path d="M190.141 259.201L189.108 258.607C188.611 258.321 187.966 258.475 187.667 258.951L187.65 258.979C187.351 259.455 187.512 260.073 188.009 260.359L189.042 260.953C189.539 261.239 190.185 261.085 190.483 260.609L190.501 260.581C190.799 260.105 190.638 259.487 190.141 259.201Z" stroke="#263238" stroke-linecap="round" stroke-linejoin="round"/>
<path d="M194.585 180.994C194.585 180.994 192.444 185.857 192.846 188.933C193.247 192.009 197.53 195.341 197.53 195.341C197.53 195.341 199.002 181.634 199.002 181.122C199.002 180.609 196.319 179.456 194.585 180.994Z" fill="#263238" stroke="#263238" stroke-linecap="round" stroke-linejoin="round"/>
<path d="M193.046 198.417L195.89 196.514" stroke="#263238" stroke-width="2" stroke-linecap="round" stroke-linejoin="round"/>
<path d="M196.185 181.89C196.185 181.89 195.649 195.469 195.917 198.026C196.185 200.582 197.255 208.785 198.192 211.348C199.129 213.911 202.207 222.107 204.616 223.004C207.025 223.901 211.837 224.542 213.443 223.517C215.049 222.491 220.931 218.653 222.537 214.936C223.489 212.769 224.12 210.485 224.411 208.15C225.746 207.468 226.899 206.5 227.781 205.322C228.663 204.145 229.25 202.788 229.496 201.358C230.299 196.488 228.158 195.084 228.158 195.084L228.292 186.626C228.292 186.626 226.82 180.737 222.938 177.533C219.057 174.329 214.513 174.073 209.829 176.508C205.145 178.943 196.185 181.89 196.185 181.89Z" fill="white" stroke="#263238" stroke-linecap="round" stroke-linejoin="round"/>
<path d="M221.332 181.122C221.332 181.122 221.466 177.79 218.127 178.943C214.788 180.096 213.978 182.275 209.026 184.197C204.074 186.12 197.523 183.941 195.255 182.66C192.986 181.378 191.373 179.584 194.452 176.252C197.53 172.919 204.75 169.594 212.519 169.594C220.288 169.594 226.298 175.739 228.84 178.302C231.383 180.865 231.785 184.069 230.848 186.37C229.911 188.67 228.171 195.085 228.171 195.085C228.171 195.085 227.101 194.956 226.699 196.488C226.297 198.019 226.431 199.692 224.691 199.82C222.952 199.948 223.085 195.469 223.085 195.469C223.085 195.469 218.809 194.187 218.274 191.24C217.739 188.292 221.332 183.941 221.332 181.122Z" fill="#263238" stroke="#263238" stroke-linecap="round" stroke-linejoin="round"/>
<path d="M205.399 200.506L193.026 198.417L193.742 203.729C193.786 204.06 193.94 204.367 194.181 204.608C194.422 204.848 194.738 205.007 195.081 205.062L202.602 206.196C203.016 206.26 203.439 206.168 203.782 205.938C204.126 205.708 204.363 205.36 204.442 204.966L205.399 200.506Z" stroke="#263238" stroke-width="2" stroke-linecap="round" stroke-linejoin="round"/>
<path d="M207.654 200.73L222.002 200.333L220.596 205.306C220.475 205.64 220.244 205.929 219.938 206.127C219.631 206.326 219.266 206.424 218.897 206.408L210.197 206.523C209.746 206.553 209.299 206.426 208.938 206.166C208.577 205.906 208.325 205.53 208.23 205.107L207.654 200.73Z" stroke="#263238" stroke-width="2" stroke-linecap="round" stroke-linejoin="round"/>
<path d="M205.419 200.506L207.654 200.73" stroke="#263238" stroke-width="2" stroke-linecap="round" stroke-linejoin="round"/>
<path d="M222.001 200.333L226.686 196.488" stroke="#263238" stroke-width="2" stroke-linecap="round" stroke-linejoin="round"/>
<path d="M209.562 199.179C209.562 199.179 213.577 196.238 217.324 198.026" stroke="#263238" stroke-width="2" stroke-linecap="round" stroke-linejoin="round"/>
<path d="M203.546 198.539C203.546 198.539 200.467 195.335 196.988 197.513" stroke="#263238" stroke-width="2" stroke-linecap="round" stroke-linejoin="round"/>
<path d="M204.349 209.682C204.349 209.682 203.68 212.373 204.349 212.886C205.488 213.488 206.803 213.714 208.089 213.527" stroke="#263238" stroke-linecap="round" stroke-linejoin="round"/>
<path d="M202.341 214.911C202.341 214.911 205.018 216.833 207.561 216.961C210.104 217.089 213.041 215.295 213.041 215.295" stroke="#263238" stroke-linecap="round" stroke-linejoin="round"/>
<path d="M212.238 201.871C212.238 201.871 213.844 203.665 216.521 201.743" stroke="#263238" stroke-linecap="round" stroke-linejoin="round"/>
<path d="M199.062 201.083C199.062 201.083 200.4 203.069 203.318 201.512" stroke="#263238" stroke-linecap="round" stroke-linejoin="round"/>
<path d="M116.064 181.109C116.064 181.109 116.914 193.316 116.272 194.335L114.392 197.385C114.392 197.385 115.241 206.139 113.542 207.151C112.225 207.826 110.78 208.243 109.292 208.375C109.292 208.375 107.593 214.885 106.95 215.699C106.308 216.513 102.487 219.16 101.215 219.544C99.944 219.929 95.9022 220.185 86.3397 214.661C76.7772 209.138 73.1637 207.337 73.3778 204.287C73.592 201.237 74.047 197.776 74.047 197.776C74.047 197.776 75.111 183.121 77.0248 178.648C78.9387 174.176 103.163 171.728 108.476 172.952C113.789 174.176 116.064 181.109 116.064 181.109Z" fill="white" stroke="#263238" stroke-linecap="round" stroke-linejoin="round"/>
<path d="M91.4121 201.249L92.9044 202.268C92.9044 202.268 91.6262 207.151 92.2352 209.394" stroke="#263238" stroke-linecap="round" stroke-linejoin="round"/>
<path d="M112.658 197.161C112.444 198.097 111.929 198.776 111.514 198.686C111.099 198.596 110.932 197.776 111.153 196.841C111.374 195.905 111.882 195.226 112.297 195.316C112.712 195.405 112.879 196.232 112.658 197.161Z" fill="#263238"/>
<path d="M110.49 193.425C110.49 193.425 112.806 191.208 114.74 193.304" stroke="#263238" stroke-linecap="round" stroke-linejoin="round"/>
<path d="M107.566 179.481C107.566 179.481 110.323 184.364 110.116 185.383C109.908 186.402 101.189 188.843 101.189 188.843C101.189 188.843 100.339 193.726 99.0608 194.335L97.7894 194.944C96.77 193.618 95.9145 192.184 95.2398 190.67C93.7543 187.62 91.6263 186.825 89.2909 189.856C86.9555 192.887 88.8626 200.032 90.1407 200.641L91.4122 201.249C91.4122 201.249 90.3482 202.268 86.313 202.883C82.2779 203.498 79.3001 204.306 76.329 203.492C73.3578 202.678 69.1019 194.944 67.6297 184.973C66.1575 175.002 70.815 166.46 76.9981 163.827C83.1813 161.193 97.1871 163.622 98.2444 164.23C99.3017 164.839 106.535 161.59 110.785 163.622C115.034 165.653 114.8 167.896 115.884 169.318C116.968 170.741 122.469 168.915 122.897 174.003C123.325 179.091 121.197 182.141 118.433 182.544C115.67 182.948 107.566 179.481 107.566 179.481Z" fill="#263238" stroke="#263238" stroke-linecap="round" stroke-linejoin="round"/>
<path d="M57.2508 211.425C57.2508 211.425 36.8878 221.825 33.0066 223.882C29.1254 225.939 28.5432 227.785 28.3224 229.65C28.1016 231.514 28.3224 294.274 28.3224 294.274H138.315C138.315 294.274 121.632 246.31 121.083 240.953C120.535 235.596 119.343 226.093 117.791 224.978C116.238 223.863 94.3164 214.578 94.3164 214.578C94.3164 214.578 89.0767 209.195 76.6702 209.195C64.2637 209.195 57.2508 211.425 57.2508 211.425Z" fill="#0D6EFD" stroke="#263238" stroke-linecap="round" stroke-linejoin="round"/>
<path d="M69.858 249.636C70.4335 249.854 71.0157 250.052 71.5979 250.238" stroke="#263238" stroke-linecap="round" stroke-linejoin="round"/>
<path d="M48.1433 232.411C48.1433 232.411 56.1734 243.138 67.1412 248.431" stroke="#263238" stroke-linecap="round" stroke-linejoin="round"/>
<path d="M55.1161 244.849C55.1161 244.849 59.5728 249.123 68.881 251.539" stroke="#263238" stroke-linecap="round" stroke-linejoin="round"/>
<path d="M110.377 229.457C107.278 232.828 102.915 238.217 101.47 243.176" stroke="#263238" stroke-linecap="round" stroke-linejoin="round"/>
<path d="M113.682 226.093C113.682 226.093 113.067 226.663 112.103 227.643" stroke="#263238" stroke-linecap="round" stroke-linejoin="round"/>
<path d="M102.628 237.236C102.628 237.236 99.7166 242.619 99.1411 245.964" stroke="#263238" stroke-linecap="round" stroke-linejoin="round"/>
<path d="M56.0864 212.348C56.0864 212.348 67.3352 211.976 78.0019 212.162C88.6685 212.348 95.6547 215.507 95.6547 215.507C95.6547 215.507 89.2507 208.08 86.3465 206.408C83.4423 204.735 74.5155 201.922 67.1479 204.178C62.6092 205.638 58.7138 208.515 56.0864 212.348Z" fill="#0D6EFD" stroke="#263238" stroke-linecap="round" stroke-linejoin="round"/>
<path d="M24.0999 294.203L13.8482 256.563C13.7487 256.106 13.7569 255.633 13.8722 255.18C13.9874 254.726 14.2069 254.303 14.5146 253.941C14.8223 253.578 15.2105 253.287 15.6508 253.086C16.0912 252.886 16.5727 252.782 17.0602 252.782H98.6259C99.3753 252.783 100.102 253.028 100.686 253.478C101.27 253.928 101.676 254.555 101.838 255.256L110.892 294.242" fill="#263238"/>
<path d="M24.0999 294.203L13.8482 256.563C13.7487 256.106 13.7569 255.633 13.8722 255.18C13.9874 254.726 14.2069 254.303 14.5146 253.941C14.8223 253.578 15.2105 253.287 15.6508 253.086C16.0912 252.886 16.5727 252.782 17.0602 252.782H98.6259C99.3753 252.783 100.102 253.028 100.686 253.478C101.27 253.928 101.676 254.555 101.838 255.256L110.892 294.242" stroke="#263238" stroke-linecap="round" stroke-linejoin="round"/>
</svg>
